<?xml version="1.0" encoding="UTF-8" standalone="yes"?>
<svg xmlns="http://www.w3.org/2000/svg" xmlns:xlink="http://www.w3.org/1999/xlink" width="30px" height="30px" viewBox="0 0 30 30" version="1.1" fill="#000000">
  <g id="surface159907">
    <path style=" stroke:none;fill-rule:nonzero;fill:#000000;fill-opacity:1;" d="M 6 4 C 4.894531 4 4 4.894531 4 6 L 4 24 C 4 25.105469 4.894531 26 6 26 L 24 26 C 25.105469 26 26 25.105469 26 24 L 26 6 C 26 4.894531 25.105469 4 24 4 Z M 15 9 C 20.015625 9 22.816406 14.453125 22.816406 14.453125 C 22.921875 14.613281 23 14.792969 23 15 C 23 15.207031 22.921875 15.386719 22.8125 15.546875 C 22.8125 15.546875 20.023438 21 15 21 C 9.976562 21 7.183594 15.546875 7.183594 15.546875 C 7.078125 15.386719 7 15.207031 7 15 C 7 14.796875 7.078125 14.613281 7.179688 14.457031 C 7.179688 14.457031 9.984375 9 15 9 Z M 15 11 C 12.789062 11 11 12.789062 11 15 C 11 17.210938 12.789062 19 15 19 C 17.210938 19 19 17.210938 19 15 C 19 12.789062 17.210938 11 15 11 Z M 15 13 C 16.105469 13 17 13.894531 17 15 C 17 16.105469 16.105469 17 15 17 C 13.894531 17 13 16.105469 13 15 C 13 13.894531 13.894531 13 15 13 Z M 15 13 "/>
  </g>
</svg>
